<svg width="80" height="81" viewBox="0 0 80 81" fill="none" xmlns="http://www.w3.org/2000/svg">
<path d="M73.3346 56V15.7667C73.3346 11.7667 70.068 8.80001 66.1013 9.13334H65.9013C58.9013 9.73334 48.268 13.3 42.3346 17.0333L41.768 17.4C40.8013 18 39.2013 18 38.2346 17.4L37.4013 16.9C31.468 13.2 20.868 9.66668 13.868 9.10001C9.9013 8.76668 6.66797 11.7667 6.66797 15.7333V56C6.66797 59.2 9.26797 62.2 12.468 62.6L13.4346 62.7333C20.668 63.7 31.8346 67.3667 38.2346 70.8667L38.368 70.9333C39.268 71.4333 40.7013 71.4333 41.568 70.9333C47.968 67.4 59.168 63.7 66.4346 62.7333L67.5346 62.6C70.7346 62.2 73.3346 59.2 73.3346 56Z" stroke="white" stroke-width="5" stroke-linecap="round" stroke-linejoin="round"/>
<path d="M40 18.5017V68.5017" stroke="white" stroke-width="5" stroke-linecap="round" stroke-linejoin="round"/>
<path d="M25.832 28.5017H18.332" stroke="white" stroke-width="5" stroke-linecap="round" stroke-linejoin="round"/>
<path d="M28.332 38.5017H18.332" stroke="white" stroke-width="5" stroke-linecap="round" stroke-linejoin="round"/>
</svg>
